#!OML:ASF H:\Punching\Project 1\Capture day 1\Session 1\female.ASF
:FULLY-SPECIFIED
:DEGREES
4396
root 12.4779 15.6959 -5.81594 380.681 -74.2624 -8.97868
lowerback -5.75713 -2.65926 2.09482
upperback -6.90466 -3.77854 1.39534
thorax -3.95999 -2.03924 0.197783
lowerneck -13.4023 4.67291 9.49718
upperneck 38.6541 4.32899 -4.1398
head 16.5073 2.13948 -2.89899
rclavicle -4.56584e-014 -1.38652e-014
rhumerus -41.0195 -11.6906 -67.3191
rradius 24.9543
rwrist 9.206
rhand -16.2267 -7.27048
rfingers 7.12502
rthumb 9.98145 -37.0138
lclavicle -4.56584e-014 -1.38652e-014
lhumerus -33.0054 -6.19255 92.7417
lradius 51.6691
lwrist -15.1054
lhand -3.76242 8.54165
lfingers 7.12502
lthumb 21.9821 37.3126
rfemur -17.3555 0.204981 30.1542
rtibia 18.6622
rfoot -12.8802 -10.0946
rtoes 13.4703
lfemur -18.1355 10.1826 -16.1149
ltibia 53.4946
lfoot -9.71981 18.9203
ltoes 1.3388
4397
root 12.416 15.6897 -5.82449 380.577 -74.646 -8.9113
lowerback -5.68591 -2.57444 2.09309
upperback -6.87748 -3.66339 1.35002
thorax -3.97224 -1.98184 0.157101
lowerneck -13.3775 4.7714 9.62114
upperneck 38.604 4.50988 -4.29547
head 16.5034 2.21242 -2.95627
rclavicle 9.22485e-016 1.19271e-015
rhumerus -40.6237 -11.058 -67.9248
rradius 25.3751
rwrist 8.58682
rhand -16.319 -7.2621
rfingers 7.12502
rthumb 9.89244 -37.0097
lclavicle 9.22485e-016 1.19271e-015
lhumerus -33.1533 -6.52974 92.8527
lradius 51.5802
lwrist -14.7605
lhand -3.95748 8.68794
lfingers 7.12502
lthumb 21.7948 37.4808
rfemur -17.1616 0.408384 30.1378
rtibia 18.8555
rfoot -13.1736 -10.0119
rtoes 13.5966
lfemur -19.4198 10.1126 -16.4035
ltibia 54.6675
lfoot -10.1184 18.2945
ltoes 0.552957
4398
root 12.3545 15.6838 -5.83177 380.456 -75.0338 -8.81716
lowerback -5.6187 -2.48292 2.09075
upperback -6.85557 -3.53961 1.30305
thorax -3.98759 -1.9203 0.115027
lowerneck -13.3514 4.86534 9.73977
upperneck 38.5617 4.68554 -4.45268
head 16.5033 2.28217 -3.01455
rclavicle 1.22501e-014 -3.52843e-015
rhumerus -40.2426 -10.4284 -68.5085
rradius 25.8013
rwrist 7.96092
rhand -16.3965 -7.25078
rfingers 7.12502
rthumb 9.81766 -37.0019
lclavicle 1.22501e-014 -3.52843e-015
lhumerus -33.3077 -6.84617 92.9341
lradius 51.4339
lwrist -14.4621
lhand -4.14022 8.81096
lfingers 7.12502
lthumb 21.6193 37.6241
rfemur -16.9857 0.588662 30.1123
rtibia 19.061
rfoot -13.4683 -9.90911
rtoes 13.6986
lfemur -20.6958 9.99124 -16.722
ltibia 55.6875
lfoot -10.5667 17.7607
ltoes -0.194758
4399
root 12.2932 15.6781 -5.83806 380.37 -75.4258 -8.75087
lowerback -5.55496 -2.38711 2.09783
upperback -6.83749 -3.4106 1.25763
thorax -4.00528 -1.85669 0.0691933
lowerneck -13.3199 4.95881 9.85901
upperneck 38.5242 4.85962 -4.60849
head 16.505 2.3515 -3.07284
rclavicle -2.00897e-014 -7.30534e-015
rhumerus -39.8709 -9.79054 -69.0835
rradius 26.2287
rwrist 7.33731
rhand -16.4708 -7.26138
rfingers 7.12502
rthumb 9.74596 -37.0159
lclavicle -2.00897e-014 -7.30534e-015
lhumerus -33.4715 -7.13043 92.9762
lradius 51.2355
lwrist -14.2163
lhand -4.29036 8.91183
lfingers 7.12502
lthumb 21.4751 37.7415
rfemur -16.818 0.750409 30.0937
rtibia 19.267
rfoot -13.7595 -9.78598
rtoes 13.7677
lfemur -21.9556 9.82172 -17.0481
ltibia 56.5543
lfoot -11.0673 17.3033
ltoes -0.873538
4400
root 12.2324 15.6724 -5.84271 380.35 -75.8099 -8.74059
lowerback -5.49714 -2.28242 2.13909
upperback -6.82474 -3.27106 1.20982
thorax -4.02707 -1.78961 0.00180947
lowerneck -13.2904 5.04658 9.97166
upperneck 38.4954 5.02246 -4.75446
head 16.5107 2.41653 -3.12791
rclavicle 5.65294e-014 2.68359e-015
rhumerus -39.5153 -9.16368 -69.6414
rradius 26.6541
rwrist 6.71951
rhand -16.5354 -7.28767
rfingers 7.12502
rthumb 9.68358 -37.0451
lclavicle 5.65294e-014 2.68359e-015
lhumerus -33.6428 -7.39684 92.9874
lradius 50.9891
lwrist -14.0163
lhand -4.40178 8.99942
lfingers 7.12502
lthumb 21.3681 37.8412
rfemur -16.6623 0.870139 30.091
rtibia 19.4641
rfoot -14.0418 -9.62993
rtoes 13.7897
lfemur -23.2096 9.60413 -17.3726
ltibia 57.2738
lfoot -11.6092 16.9225
ltoes -1.52415
4401
root 12.1716 15.6664 -5.84634 380.355 -76.1845 -8.73958
lowerback -5.44665 -2.17975 2.19429
upperback -6.82156 -3.13512 1.16192
thorax -4.05534 -1.72532 -0.0736745
lowerneck -13.2536 5.13396 10.0778
upperneck 38.4735 5.18501 -4.89641
head 16.5185 2.48087 -3.18047
rclavicle -1.79093e-014 -1.42131e-014
rhumerus -39.1716 -8.52885 -70.1919
rradius 27.0717
rwrist 6.12258
rhand -16.6031 -7.33646
rfingers 7.12502
rthumb 9.61826 -37.0969
lclavicle -1.79093e-014 -1.42131e-014
lhumerus -33.8299 -7.60647 92.9597
lradius 50.6968
lwrist -13.8736
lhand -4.45884 9.05725
lfingers 7.12502
lthumb 21.3133 37.9053
rfemur -16.5188 0.947412 30.0942
rtibia 19.6535
rfoot -14.321 -9.44171
rtoes 13.7762
lfemur -24.4549 9.34181 -17.6992
ltibia 57.8472
lfoot -12.1892 16.6235
ltoes -2.16906
4402
root 12.1108 15.6596 -5.84915 380.447 -76.5413 -8.81787
lowerback -5.40036 -2.07752 2.27988
upperback -6.82453 -3.00082 1.11452
thorax -4.089 -1.66348 -0.165751
lowerneck -13.2196 5.22331 10.1895
upperneck 38.4629 5.34571 -5.03259
head 16.5336 2.54595 -3.23222
rclavicle -8.98879e-015 -1.56046e-014
rhumerus -38.8393 -7.92214 -70.7237
rradius 27.4713
rwrist 5.57335
rhand -16.6443 -7.38214
rfingers 7.12502
rthumb 9.57855 -37.1444
lclavicle -8.98879e-015 -1.56046e-014
lhumerus -34.0297 -7.76847 92.8912
lradius 50.3667
lwrist -13.7796
lhand -4.45057 9.09926
lfingers 7.12502
lthumb 21.3212 37.9464
rfemur -16.3816 0.99691 30.121
rtibia 19.8394
rfoot -14.6067 -9.24014
rtoes 13.765
lfemur -25.6853 9.03934 -18.0043
ltibia 58.2814
lfoot -12.7948 16.4123
ltoes -2.81417
4403
root 12.0498 15.6521 -5.85115 380.622 -76.8741 -8.97061
lowerback -5.37018 -1.97313 2.39561
upperback -6.82709 -2.86487 1.06861
thorax -4.11414 -1.60221 -0.273973
lowerneck -13.1894 5.30809 10.2858
upperneck 38.4528 5.49689 -5.15044
head 16.548 2.60741 -3.27467
rclavicle -4.53478e-016 -5.36719e-015
rhumerus -38.5116 -7.36672 -71.2257
rradius 27.8526
rwrist 5.07688
rhand -16.6693 -7.43224
rfingers 7.12502
rthumb 9.55446 -37.1956
lclavicle -4.53478e-016 -5.36719e-015
lhumerus -34.2287 -7.89339 92.791
lradius 49.9988
lwrist -13.7189
lhand -4.39294 9.14696
lfingers 7.12502
lthumb 21.3766 37.9878
rfemur -16.2535 1.02973 30.1654
rtibia 20.0242
rfoot -14.9065 -9.02754
rtoes 13.8367
lfemur -26.9037 8.69447 -18.2875
ltibia 58.5773
lfoot -13.4185 16.2866
ltoes -3.40948
4404
root 11.9884 15.6435 -5.85305 380.883 -77.1869 -9.20441
lowerback -5.34446 -1.87228 2.52521
upperback -6.83293 -2.73399 1.03223
thorax -4.13994 -1.54405 -0.380424
lowerneck -13.1601 5.3923 10.3744
upperneck 38.4487 5.64933 -5.26841
head 16.566 2.66815 -3.31585
rclavicle 1.27968e-015 -9.93923e-016
rhumerus -38.1894 -6.83257 -71.7033
rradius 28.2104
rwrist 4.63783
rhand -16.6882 -7.46965
rfingers 7.12502
rthumb 9.53617 -37.2339
lclavicle 1.27968e-015 -9.93923e-016
lhumerus -34.4267 -7.97524 92.6494
lradius 49.5913
lwrist -13.6609
lhand -4.28323 9.19832
lfingers 7.12502
lthumb 21.482 38.0272
rfemur -16.1241 1.07066 30.2287
rtibia 20.2047
rfoot -15.2105 -8.83316
rtoes 13.9314
lfemur -28.0995 8.32244 -18.5426
ltibia 58.7358
lfoot -14.0417 16.2445
ltoes -3.94755
4405
root 11.9263 15.6342 -5.85434 381.19 -77.4792 -9.49585
lowerback -5.316 -1.76995 2.67122
upperback -6.83392 -2.60115 0.994723
thorax -4.16231 -1.48554 -0.497351
lowerneck -13.1291 5.47105 10.46
upperneck 38.4416 5.79121 -5.37722
head 16.5807 2.72543 -3.35415
rclavicle -3.70423e-014 6.31141e-015
rhumerus -37.8768 -6.34934 -72.1548
rradius 28.545
rwrist 4.25841
rhand -16.7087 -7.49316
rfingers 7.12502
rthumb 9.51645 -37.2583
lclavicle -3.70423e-014 6.31141e-015
lhumerus -34.6242 -8.01188 92.4716
lradius 49.1463
lwrist -13.6174
lhand -4.14917 9.26883
lfingers 7.12502
lthumb 21.6107 38.0829
rfemur -15.9753 1.11512 30.3014
rtibia 20.3793
rfoot -15.5086 -8.65641
rtoes 13.9627
lfemur -29.2489 7.91254 -18.7745
ltibia 58.7506
lfoot -14.6649 16.2863
ltoes -4.3513
4406
root 11.8633 15.6243 -5.85556 381.501 -77.7552 -9.8047
lowerback -5.28328 -1.6673 2.81063
upperback -6.82613 -2.46704 0.960799
thorax -4.17651 -1.42566 -0.607194
lowerneck -13.1022 5.54478 10.539
upperneck 38.4305 5.92572 -5.48121
head 16.5933 2.77953 -3.3902
rclavicle 3.58931e-014 -1.44616e-014
rhumerus -37.567 -5.91248 -72.5728
rradius 28.8567
rwrist 3.93142
rhand -16.7105 -7.49883
rfingers 7.12502
rthumb 9.51469 -37.264
lclavicle 3.58931e-014 -1.44616e-014
lhumerus -34.8192 -8.00217 92.2699
lradius 48.6731
lwrist -13.5709
lhand -4.00473 9.37408
lfingers 7.12502
lthumb 21.7494 38.1722
rfemur -15.7996 1.171 30.3755
rtibia 20.5397
rfoot -15.7912 -8.51314
rtoes 13.8996
lfemur -30.3421 7.47689 -18.9911
ltibia 58.6152
lfoot -15.2755 16.3996
ltoes -4.63051
4407
root 11.7995 15.6141 -5.85645 381.786 -78.0198 -10.1046
lowerback -5.24158 -1.56912 2.93859
upperback -6.80904 -2.33774 0.930383
thorax -4.18471 -1.36718 -0.707211
lowerneck -13.0732 5.61724 10.6172
upperneck 38.4128 6.06054 -5.58874
head 16.6022 2.83331 -3.42736
rclavicle -3.40419e-014 5.36719e-015
rhumerus -37.2557 -5.50412 -72.9684
rradius 29.1438
rwrist 3.65323
rhand -16.7215 -7.51577
rfingers 7.12502
rthumb 9.50407 -37.2814
lclavicle -3.40419e-014 5.36719e-015
lhumerus -35.0179 -7.91873 92.044
lradius 48.1733
lwrist -13.5289
lhand -3.87077 9.51853
lfingers 7.12502
lthumb 21.8781 38.3016
rfemur -15.5885 1.23616 30.443
rtibia 20.681
rfoot -16.0556 -8.39598
rtoes 13.7457
lfemur -31.3642 7.02027 -19.1981
ltibia 58.3198
lfoot -15.8466 16.5752
ltoes -4.80451
4408
root 11.7348 15.6041 -5.85647 382.065 -78.2715 -10.4316
lowerback -5.17905 -1.46917 3.07107
upperback -6.77643 -2.20456 0.900674
thorax -4.1876 -1.30628 -0.808863
lowerneck -13.0523 5.68622 10.6925
upperneck 38.3907 6.18944 -5.69256
head 16.6103 2.88491 -3.46303
rclavicle 1.17904e-014 -9.29318e-015
rhumerus -36.9443 -5.14806 -73.3327
rradius 29.4048
rwrist 3.42192
rhand -16.7284 -7.5207
rfingers 7.12502
rthumb 9.49743 -37.2867
lclavicle 1.17904e-014 -9.29318e-015
lhumerus -35.2202 -7.77091 91.8024
lradius 47.6557
lwrist -13.4886
lhand -3.76403 9.71053
lfingers 7.12502
lthumb 21.9805 38.4816
rfemur -15.3252 1.33124 30.5039
rtibia 20.7988
rfoot -16.3063 -8.31877
rtoes 13.578
lfemur -32.2958 6.53457 -19.3897
ltibia 57.8583
lfoot -16.382 16.8085
ltoes -4.87874
